<?xml version="1.0" ?><svg enable-background="new 0 0 24 24" id="Layer_1" version="1.1" viewBox="0 0 24 24" xml:space="preserve" xmlns="http://www.w3.org/2000/svg" xmlns:xlink="http://www.w3.org/1999/xlink"><g><path d="M20,9l1-1h-5.8510742C15.3674316,7.5435791,15.5,7.0388184,15.5,6.5   c0-0.4244995-0.0837402-0.8357544-0.2293091-1.2233276C16.2791138,5.0955811,17,4.78125,17,4.25   c0-0.5779419-0.8511353-0.9002075-2-1.0721436V2c0-1.1046143-0.8954468-2-2-2h-2C9.8954468,0,9,0.8953857,9,2v1.1778564   C7.8511353,3.3497925,7,3.6720581,7,4.25c0,0.53125,0.7208862,0.8455811,1.7293091,1.0266724   C8.5837402,5.6642456,8.5,6.0755005,8.5,6.5c0,0.5388184,0.1325684,1.0435791,0.3510742,1.5H3l1,1l-1,1l1,1l-1,1h4.5L6,21l1.5-1   L9,21l1.5-1l0.5,0.333313V23.5c0,0.2763672,0.2236328,0.5,0.5,0.5h1c0.2763672,0,0.5-0.2236328,0.5-0.5v-3.166687L13.5,20l1.5,1   l1.5-1l1.5,1l-1-9h4l-1-1l1-1L20,9z" fill="#F47920" id="base_color_29_"/><g id="light_foil_23_"><path d="M20,9l1-1h-5.8510742C14.5848999,9.1781616,13.3908691,10,12,10    S9.4151001,9.1781616,8.8510742,8H3l1,1l-1,1l1,1l-1,1h4.5L6,21l1.5-1L9,21l1.5-1l1.5,1l1.5-1l1.5,1l1.5-1l1.5,1l-1-9h4l-1-1l1-1    L20,9z M10.7050781,14.8598633l-0.465332-0.1573486l-0.3154297,0.9489136l0.4604492,0.1557007l-0.3203125,0.9472656    l-0.4555664-0.1540527l-0.2192383,0.6594238l-0.9492188-0.3154297l0.2208862-0.6644287l-0.491394-0.1661377l0.3203125-0.9472656    l0.4865112,0.1644897l0.3154297-0.9489136l-0.4816284-0.1628418l0.3203125-0.9472656l0.4768066,0.1612549l0.1569824-0.47229    l0.9492188,0.3154297l-0.1586304,0.4772339l0.4701538,0.1589966L10.7050781,14.8598633z" fill="#FFFFFF" opacity="0.2"/><path d="M12,5.5c-1.1083374,0-2.317749-0.0522461-3.2706909-0.2233276    C8.5837402,5.6642456,8.5,6.0755005,8.5,6.5c0,1.9296875,1.5703125,3.5,3.5,3.5s3.5-1.5703125,3.5-3.5    c0-0.4244995-0.0837402-0.8357544-0.2293091-1.2233276C14.317749,5.4477539,13.1083374,5.5,12,5.5z" fill="#FFFFFF" opacity="0.6"/></g></g><g/><g/><g/><g/><g/><g/><g/><g/><g/><g/><g/><g/><g/><g/><g/></svg>