<svg width="64" height="64" xmlns="http://www.w3.org/2000/svg">
 <title/>

 <g>
  <title>background</title>
  <rect fill="none" id="canvas_background" height="402" width="582" y="-1" x="-1"/>
 </g>
 <g>
  <title>Layer 1</title>
  <path fill="#667580" id="svg_1" d="m10.19,41.61c3.06,8.53 11.68,14.7 21.81,14.7s18.75,-6.17 21.81,-14.7c2.87,-0.1 5.19,-2.82 5.19,-6.15c0,-3.15 -2.08,-5.76 -4.74,-6.11c-2.58,-9.26 -11.58,-16.11 -22.26,-16.11s-19.68,6.85 -22.26,16.11c-2.66,0.35 -4.74,2.96 -4.74,6.11c0,3.33 2.32,6.05 5.19,6.15zm46.81,-6.15a4.06,4.06 0 0 1 -2.56,4a20.08,20.08 0 0 0 0.3,-7.93a4.19,4.19 0 0 1 2.26,3.93zm-28.49,-19.93c-1.91,1.9 -3.31,4.69 -1.77,8a1,1 0 0 0 0.91,0.58a1,1 0 0 0 0.9,-1.41c-1.91,-4.17 2.63,-6.92 3.68,-7.49c0.39,0 0.77,0 1.16,0.06c-1.14,1.94 -1.88,4.53 0,6.18a1,1 0 0 0 1.33,-1.45c-1.21,-1 0.22,-3.42 0.91,-4.42c9.85,1.58 17.37,9.58 17.37,19.2c0,10.77 -9.42,19.53 -21,19.53s-21,-8.76 -21,-19.53c0,-9.67 7.59,-17.69 17.51,-19.25zm-19.25,16a20.08,20.08 0 0 0 0.3,7.93a4.06,4.06 0 0 1 -2.56,-4a4.19,4.19 0 0 1 2.26,-3.91l0,-0.02z"/>
  <path fill="#667580" id="svg_2" d="m20.68,34.75a1,1 0 0 0 1,-1a1.87,1.87 0 0 1 1.61,-2.05a1.87,1.87 0 0 1 1.61,2.05a1,1 0 0 0 2,0a3.86,3.86 0 0 0 -3.61,-4.05a3.86,3.86 0 0 0 -3.61,4.05a1,1 0 0 0 1,1z"/>
  <path fill="#667580" id="svg_3" d="m37.23,34.75a1,1 0 0 0 1,-1a1.87,1.87 0 0 1 1.61,-2.05a1.87,1.87 0 0 1 1.61,2.05a1,1 0 0 0 2,0a3.86,3.86 0 0 0 -3.61,-4.05a3.86,3.86 0 0 0 -3.61,4.05a1,1 0 0 0 1,1z"/>
  <path fill="#667580" id="svg_4" d="m32,47.38a5.36,5.36 0 0 0 5.35,-5.38a1,1 0 0 0 -2,0a3.35,3.35 0 1 1 -6.7,0a1,1 0 0 0 -2,0a5.36,5.36 0 0 0 5.35,5.38z"/>
 </g>
</svg>