<svg width="8.4666665" height="8.4666669" xmlns="http://www.w3.org/2000/svg">

 <g>
  <title>background</title>
  <rect fill="none" id="canvas_background" height="402" width="582" y="-1" x="-1"/>
 </g>
 <g>
  <title>Layer 1</title>
  <path clip-rule="nonzero" fill="#667580" fill-rule="nonzero" stroke-width="2" stroke-linecap="round" stroke-linejoin="round" stroke-miterlimit="4" stroke-dashoffset="0" id="path935" d="m4.232299,0.265613c-1.165868,0 -2.115114,0.949256 -2.115116,2.115116c0.000003,0.734719 0.377619,1.383803 0.948264,1.763715c-1.620658,0.499531 -2.801898,2.010415 -2.801898,3.793051a0.26461,0.26461 0 0 0 0.265618,0.265618l7.408333,0a0.26461,0.26461 0 0 0 0.263549,-0.265618c0.000003,-1.782456 -1.180457,-3.293367 -2.800861,-3.793051c0.571201,-0.379915 0.949293,-1.02901 0.949296,-1.763715c-0.000003,-1.16586 -0.951317,-2.115116 -2.117185,-2.115116zm0,0.527098c0.879888,0 1.588016,0.708139 1.588019,1.588019c-0.000003,0.87989 -0.708131,1.588016 -1.588019,1.588016c-0.879885,0 -1.585947,-0.708126 -1.58595,-1.588016c0.000003,-0.87988 0.706064,-1.588019 1.58595,-1.588019zm0,3.705201c1.8092,0 3.247927,1.403744 3.388942,3.176034l-6.775296,0c0.141015,-1.77229 1.577155,-3.176034 3.386354,-3.176034z"/>
 </g>
</svg>