<svg width="64" height="64" xmlns="http://www.w3.org/2000/svg">

 <g>
  <title>background</title>
  <rect fill="none" id="canvas_background" height="402" width="582" y="-1" x="-1"/>
 </g>
 <g>
  <title>Layer 1</title>
  <path fill="#667580" id="Fill-12" d="m51.8,50.301113l-39.5,0c-2.3,0 -4.2,-1.9 -4.2,-4.2l0,-28.2c0,-2.3 1.9,-4.2 4.2,-4.2l39.5,0c2.3,0 4.2,1.9 4.2,4.2l0,28.2c0,2.3 -1.9,4.2 -4.2,4.2l0,0zm-39.6,-33.9c-0.8,0 -1.4,0.6 -1.4,1.4l0,28.2c0,0.8 0.6,1.4 1.4,1.4l39.5,0c0.8,0 1.4,-0.6 1.4,-1.4l0,-28.2c0,-0.8 -0.6,-1.4 -1.4,-1.4l-39.5,0l0,0z" class="st0"/>
  <path fill="#667580" id="Fill-13" d="m39.1,30.5c-3.1,0 -5.5,-2.5 -5.5,-5.5s2.5,-5.5 5.5,-5.5s5.5,2.5 5.5,5.5s-2.5,5.5 -5.5,5.5l0,0zm0,-8.5c-1.6,0 -2.9,1.3 -2.9,2.9c0,1.6 1.3,2.9 2.9,2.9c1.6,0 2.9,-1.3 2.9,-2.9c0,-1.6 -1.3,-2.9 -2.9,-2.9l0,0z" class="st0"/>
  <polyline fill="#134563" points="46.600006103515625,49.899993896484375 23.5,28.199996948242188 10.29998779296875,40.399993896484375 8.5,38.5 23.5,24.600006103515625 48.399993896484375,48 46.600006103515625,49.899993896484375 " id="Fill-14" class="st0"/>
  <polyline fill="#134563" points="53.80000305175781,42.69999694824219 46.100006103515625,36.5 39.69999694824219,41.80000305175781 38,39.69999694824219 46.100006103515625,33.100006103515625 55.399993896484375,40.69999694824219 53.80000305175781,42.69999694824219 " id="Fill-15" class="st0"/>
 </g>
</svg>